<?xml version="1.0" encoding="UTF-8"?>
<svg width="512" height="512" viewBox="0 0 512 512" fill="none" xmlns="http://www.w3.org/2000/svg">
  <!-- Nest base -->
  <path d="M256 96C180 96 120 156 120 232C120 308 180 368 256 368C332 368 392 308 392 232C392 156 332 96 256 96Z" fill="#E53935"/>
  
  <!-- Nest texture -->
  <path d="M256 128C194 128 144 178 144 240C144 302 194 352 256 352C318 352 368 302 368 240C368 178 318 128 256 128Z" fill="#FF8A65"/>
  
  <!-- Food items -->
  <circle cx="200" cy="200" r="24" fill="#4CAF50"/>
  <circle cx="312" cy="200" r="24" fill="#FFC107"/>
  <circle cx="256" cy="280" r="24" fill="#2196F3"/>
  
  <!-- Leaf decorations -->
  <path d="M180 160C160 160 144 176 144 196C144 216 160 232 180 232" stroke="#4CAF50" stroke-width="8" stroke-linecap="round"/>
  <path d="M332 160C352 160 368 176 368 196C368 216 352 232 332 232" stroke="#4CAF50" stroke-width="8" stroke-linecap="round"/>
</svg> 